<svg width="46" height="55" viewBox="0 0 46 55" fill="none" xmlns="http://www.w3.org/2000/svg">
<path d="M44.9922 50.8972C41.727 43.8871 36.6953 38.8605 30.8232 36.4777C33.7278 34.3303 35.9845 31.0583 37.2467 27.1641C38.509 23.2698 38.707 18.9687 37.8103 14.9212C36.9136 10.8737 34.9718 7.30364 32.2831 4.75928C29.5944 2.21491 26.3075 0.836914 22.9272 0.836914C19.5468 0.836914 16.2599 2.21491 13.5713 4.75928C10.8826 7.30364 8.94082 10.8737 8.04412 14.9212C7.14742 18.9687 7.3454 23.2698 8.60764 27.1641C9.86988 31.0583 12.1266 34.3303 15.0312 36.4777C9.15907 38.8578 4.12735 43.8844 0.862189 50.8972C0.74245 51.1397 0.663028 51.4094 0.628609 51.6906C0.594189 51.9718 0.605471 52.2587 0.661786 52.5344C0.718102 52.8101 0.818312 53.069 0.956503 53.2958C1.09469 53.5227 1.26807 53.7128 1.46639 53.8551C1.66472 53.9973 1.88398 54.0888 2.11124 54.1241C2.3385 54.1595 2.56916 54.1379 2.7896 54.0607C3.01004 53.9836 3.21581 53.8524 3.39475 53.6748C3.57369 53.4973 3.72219 53.2771 3.83149 53.0271C7.87059 44.3584 15.0098 39.1827 22.9272 39.1827C30.8446 39.1827 37.9838 44.3584 42.0229 53.0271C42.1322 53.2771 42.2807 53.4973 42.4596 53.6748C42.6386 53.8524 42.8443 53.9836 43.0648 54.0607C43.2852 54.1379 43.5159 54.1595 43.7431 54.1241C43.9704 54.0888 44.1897 53.9973 44.388 53.8551C44.5863 53.7128 44.7597 53.5227 44.8979 53.2958C45.0361 53.069 45.1363 52.8101 45.1926 52.5344C45.2489 52.2587 45.2602 51.9718 45.2258 51.6906C45.1913 51.4094 45.1119 51.1397 44.9922 50.8972ZM10.9214 20.0134C10.9214 17.0646 11.6255 14.182 12.9447 11.7302C14.2639 9.27834 16.139 7.36736 18.3328 6.2389C20.5265 5.11044 22.9405 4.81519 25.2694 5.39047C27.5983 5.96575 29.7375 7.38574 31.4166 9.47086C33.0956 11.556 34.2391 14.2126 34.7023 17.1047C35.1656 19.9969 34.9278 22.9947 34.0191 25.719C33.1104 28.4433 31.5716 30.7719 29.5973 32.4101C27.6229 34.0484 25.3017 34.9228 22.9272 34.9228C19.7441 34.9186 16.6923 33.3464 14.4415 30.5513C12.1908 27.7561 10.9248 23.9663 10.9214 20.0134Z" fill="white"/>
</svg>
