<svg width="63" height="61" viewBox="0 0 63 61" fill="none" xmlns="http://www.w3.org/2000/svg">
<path d="M31.5 0C25.2699 0 19.1797 1.78879 13.9995 5.14018C8.8194 8.49156 4.78197 13.255 2.39781 18.8282C0.0136485 24.4013 -0.610156 30.5338 0.605278 36.4503C1.82071 42.3667 4.8208 47.8013 9.22615 52.0668C13.6315 56.3323 19.2443 59.2371 25.3547 60.4139C31.4651 61.5908 37.7987 60.9868 43.5545 58.6783C49.3104 56.3698 54.23 52.4606 57.6913 47.4449C61.1526 42.4292 63 36.5323 63 30.5C62.9912 22.4135 59.6696 14.6607 53.7641 8.94267C47.8586 3.22466 39.8516 0.00853947 31.5 0ZM15.1685 50.8822C16.9214 48.2278 19.3362 46.0433 22.1903 44.5302C25.0444 43.017 28.246 42.2239 31.5 42.2239C34.754 42.2239 37.9556 43.017 40.8097 44.5302C43.6638 46.0433 46.0786 48.2278 47.8315 50.8822C43.1621 54.3985 37.4154 56.3075 31.5 56.3075C25.5846 56.3075 19.8379 54.3985 15.1685 50.8822ZM21.8077 28.1538C21.8077 26.2977 22.3761 24.4833 23.4412 22.94C24.5062 21.3967 26.0199 20.1939 27.7909 19.4836C29.562 18.7733 31.5108 18.5874 33.3909 18.9496C35.271 19.3117 36.998 20.2055 38.3535 21.5179C39.709 22.8304 40.6321 24.5026 41.0061 26.323C41.3801 28.1434 41.1881 30.0304 40.4545 31.7452C39.7209 33.46 38.4787 34.9257 36.8848 35.9569C35.2909 36.9881 33.417 37.5385 31.5 37.5385C28.9294 37.5385 26.4642 36.5497 24.6465 34.7898C22.8289 33.0298 21.8077 30.6428 21.8077 28.1538ZM51.4177 47.6298C48.7153 43.8381 44.9153 40.9047 40.4957 39.1984C42.8697 37.3879 44.6021 34.906 45.4519 32.098C46.3016 29.29 46.2266 26.2954 45.2371 23.5306C44.2476 20.7658 42.3929 18.3683 39.9309 16.6714C37.4689 14.9746 34.522 14.0628 31.5 14.0628C28.478 14.0628 25.5311 14.9746 23.0691 16.6714C20.6071 18.3683 18.7524 20.7658 17.7629 23.5306C16.7735 26.2954 16.6984 29.29 17.5481 32.098C18.3979 34.906 20.1303 37.3879 22.5043 39.1984C18.0847 40.9047 14.2847 43.8381 11.5823 47.6298C8.1675 43.9117 5.93556 39.317 5.15525 34.399C4.37493 29.4811 5.07953 24.4495 7.18418 19.9103C9.28884 15.3711 12.7038 11.5178 17.0179 8.81431C21.332 6.11084 26.3612 4.6725 31.5 4.6725C36.6388 4.6725 41.668 6.11084 45.9821 8.81431C50.2962 11.5178 53.7112 15.3711 55.8158 19.9103C57.9205 24.4495 58.6251 29.4811 57.8448 34.399C57.0645 39.317 54.8325 43.9117 51.4177 47.6298Z" fill="black"/>
</svg>
