<svg width="58" height="63" viewBox="0 0 58 63" fill="none" xmlns="http://www.w3.org/2000/svg">
<path d="M28.8626 17.3264C26.2939 17.3264 23.7828 18.1548 21.647 19.7066C19.5112 21.2585 17.8465 23.4643 16.8635 26.0449C15.8805 28.6256 15.6233 31.4653 16.1244 34.205C16.6256 36.9446 17.8625 39.4611 19.6789 41.4363C21.4953 43.4114 23.8095 44.7565 26.3288 45.3015C28.8482 45.8464 31.4596 45.5668 33.8328 44.4978C36.206 43.4288 38.2345 41.6186 39.6616 39.2961C41.0887 36.9735 41.8504 34.243 41.8504 31.4497C41.8468 27.7051 40.4773 24.1151 38.0424 21.4673C35.6075 18.8196 32.3061 17.3303 28.8626 17.3264ZM28.8626 40.8651C27.1501 40.8651 25.4761 40.3129 24.0522 39.2783C22.6283 38.2437 21.5186 36.7733 20.8632 35.0528C20.2079 33.3323 20.0364 31.4392 20.3705 29.6128C20.7046 27.7864 21.5292 26.1087 22.7401 24.7919C23.9511 23.4751 25.4939 22.5784 27.1734 22.2151C28.853 21.8518 30.594 22.0383 32.1761 22.7509C33.7582 23.4635 35.1105 24.6703 36.0619 26.2187C37.0133 27.7671 37.5211 29.5874 37.5211 31.4497C37.5211 33.9468 36.6089 36.3417 34.9851 38.1074C33.3613 39.8731 31.159 40.8651 28.8626 40.8651ZM41.8504 0.849365H15.8749C11.8575 0.854038 8.00595 2.59151 5.16525 5.68055C2.32456 8.76959 0.726771 12.9579 0.722473 17.3264V45.5729C0.726771 49.9414 2.32456 54.1297 5.16525 57.2188C8.00595 60.3078 11.8575 62.0453 15.8749 62.0499H41.8504C45.8677 62.0453 49.7193 60.3078 52.56 57.2188C55.4007 54.1297 56.9985 49.9414 57.0028 45.5729V17.3264C56.9985 12.9579 55.4007 8.76959 52.56 5.68055C49.7193 2.59151 45.8677 0.854038 41.8504 0.849365ZM52.6735 45.5729C52.6735 48.6943 51.5332 51.6879 49.5035 53.895C47.4738 56.1022 44.7209 57.3422 41.8504 57.3422H15.8749C13.0044 57.3422 10.2515 56.1022 8.22175 53.895C6.19202 51.6879 5.05173 48.6943 5.05173 45.5729V17.3264C5.05173 14.205 6.19202 11.2114 8.22175 9.00426C10.2515 6.79708 13.0044 5.5571 15.8749 5.5571H41.8504C44.7209 5.5571 47.4738 6.79708 49.5035 9.00426C51.5332 11.2114 52.6735 14.205 52.6735 17.3264V45.5729ZM46.1797 16.1495C46.1797 16.8478 45.9892 17.5305 45.6325 18.1111C45.2757 18.6918 44.7686 19.1443 44.1753 19.4115C43.582 19.6788 42.9291 19.7487 42.2993 19.6125C41.6694 19.4762 41.0909 19.14 40.6368 18.6462C40.1827 18.1524 39.8734 17.5232 39.7482 16.8383C39.6229 16.1534 39.6872 15.4435 39.9329 14.7983C40.1787 14.1532 40.5949 13.6017 41.1288 13.2138C41.6628 12.8258 42.2905 12.6187 42.9327 12.6187C43.7939 12.6187 44.6197 12.9907 45.2286 13.6529C45.8376 14.315 46.1797 15.2131 46.1797 16.1495Z" fill="white"/>
</svg>
