<svg width="31" height="38" viewBox="0 0 31 38" fill="none" xmlns="http://www.w3.org/2000/svg">
<path d="M30.0151 34.8025L22.7812 25.8975C24.8779 22.7982 25.9234 18.823 25.7002 14.7988C25.4771 10.7745 24.0025 7.01115 21.5831 4.29149C19.1638 1.57182 15.986 0.105275 12.7108 0.196922C9.43563 0.288568 6.31523 1.93135 3.99873 4.78354C1.68223 7.63572 0.347987 11.4777 0.273553 15.5103C0.19912 19.5428 1.39023 23.4555 3.5991 26.4343C5.80797 29.4131 8.86453 31.2287 12.1329 31.5035C15.4014 31.7782 18.63 30.4909 21.1472 27.9094L28.3796 36.8161C28.487 36.9484 28.6145 37.0532 28.7548 37.1248C28.8951 37.1964 29.0455 37.2332 29.1974 37.2332C29.3492 37.2332 29.4996 37.1964 29.6399 37.1248C29.7802 37.0532 29.9077 36.9484 30.0151 36.8161C30.1225 36.6839 30.2077 36.527 30.2658 36.3542C30.3239 36.1815 30.3538 35.9963 30.3538 35.8093C30.3538 35.6223 30.3239 35.4372 30.2658 35.2644C30.2077 35.0917 30.1225 34.9347 30.0151 34.8025ZM2.61381 15.8861C2.61381 13.353 3.22389 10.8767 4.36691 8.77051C5.50992 6.66428 7.13454 5.02268 9.0353 4.05329C10.9361 3.0839 13.0276 2.83027 15.0455 3.32446C17.0633 3.81865 18.9168 5.03847 20.3716 6.82967C21.8264 8.62086 22.8171 10.903 23.2185 13.3875C23.6198 15.8719 23.4138 18.4471 22.6265 20.7874C21.8392 23.1278 20.5059 25.1281 18.7953 26.5354C17.0846 27.9427 15.0734 28.6939 13.0161 28.6939C10.2582 28.6901 7.61408 27.3395 5.66394 24.9384C3.7138 22.5373 2.61687 19.2818 2.61381 15.8861Z" fill="#ffffff"/>
</svg>
