<svg width="31" height="38" viewBox="0 0 31 38" fill="none" xmlns="http://www.w3.org/2000/svg">
<path d="M28.1928 0.192871H2.73746C2.12372 0.192871 1.53511 0.547639 1.10113 1.17913C0.667148 1.81062 0.42334 2.66711 0.42334 3.56017V33.8659C0.42334 34.759 0.667148 35.6154 1.10113 36.2469C1.53511 36.8784 2.12372 37.2332 2.73746 37.2332H28.1928C28.8065 37.2332 29.3951 36.8784 29.8291 36.2469C30.2631 35.6154 30.5069 34.759 30.5069 33.8659V3.56017C30.5069 2.66711 30.2631 1.81062 29.8291 1.17913C29.3951 0.547639 28.8065 0.192871 28.1928 0.192871ZM28.1928 33.8659H2.73746V3.56017H28.1928V33.8659ZM22.4075 10.2948C22.4075 12.974 21.6761 15.5434 20.3741 17.4379C19.0722 19.3324 17.3064 20.3967 15.4651 20.3967C13.6239 20.3967 11.8581 19.3324 10.5561 17.4379C9.25419 15.5434 8.52276 12.974 8.52276 10.2948C8.52276 9.84824 8.64467 9.42 8.86166 9.10426C9.07865 8.78851 9.37295 8.61113 9.67982 8.61113C9.98669 8.61113 10.281 8.78851 10.498 9.10426C10.715 9.42 10.8369 9.84824 10.8369 10.2948C10.8369 12.0809 11.3245 13.7939 12.1925 15.0569C13.0604 16.3198 14.2376 17.0294 15.4651 17.0294C16.6926 17.0294 17.8698 16.3198 18.7378 15.0569C19.6057 13.7939 20.0934 12.0809 20.0934 10.2948C20.0934 9.84824 20.2153 9.42 20.4323 9.10426C20.6492 8.78851 20.9436 8.61113 21.2504 8.61113C21.5573 8.61113 21.8516 8.78851 22.0686 9.10426C22.2856 9.42 22.4075 9.84824 22.4075 10.2948Z" fill="white"/>
</svg>
