<svg width="94" height="86" viewBox="0 0 94 86" fill="none" xmlns="http://www.w3.org/2000/svg">
<path d="M46.8524 0.629883C37.63 0.629883 28.6146 3.12518 20.9465 7.80023C13.2783 12.4753 7.30166 19.1201 3.77238 26.8944C0.243104 34.6687 -0.680316 43.2234 1.11889 51.4766C2.9181 59.7297 7.35913 67.3108 13.8804 73.261C20.4016 79.2112 28.7102 83.2633 37.7555 84.905C46.8007 86.5466 56.1763 85.7041 64.6968 82.4838C73.2172 79.2636 80.4997 73.8103 85.6235 66.8136C90.7472 59.8169 93.4819 51.591 93.4819 43.1762C93.4689 31.8959 88.5519 21.081 79.8101 13.1046C71.0681 5.12816 59.2153 0.641795 46.8524 0.629883ZM46.8524 79.1769C39.0488 79.1769 31.4205 77.0655 24.932 73.1097C18.4435 69.1539 13.3864 63.5313 10.4001 56.9531C7.41377 50.3748 6.63241 43.1363 8.15482 36.1528C9.67723 29.1693 13.435 22.7546 18.953 17.7198C24.471 12.685 31.5013 9.25631 39.155 7.86721C46.8087 6.47812 54.7419 7.19105 61.9515 9.91586C69.1611 12.6407 75.3232 17.255 79.6587 23.1753C83.9941 29.0955 86.3082 36.0559 86.3082 43.1762C86.2963 52.7208 82.1356 61.8715 74.7387 68.6206C67.3419 75.3697 57.3131 79.1661 46.8524 79.1769ZM68.3737 43.1762C68.3737 44.0442 67.9958 44.8766 67.3232 45.4904C66.6505 46.1042 65.7382 46.449 64.7869 46.449H37.5758L45.8033 53.9519C46.1365 54.2559 46.4009 54.6169 46.5812 55.0142C46.7616 55.4115 46.8544 55.8373 46.8544 56.2674C46.8544 56.6974 46.7616 57.1232 46.5812 57.5205C46.4009 57.9178 46.1365 58.2788 45.8033 58.5829C45.47 58.8869 45.0744 59.1281 44.639 59.2927C44.2035 59.4573 43.7368 59.542 43.2655 59.542C42.7942 59.542 42.3276 59.4573 41.8921 59.2927C41.4567 59.1281 41.0611 58.8869 40.7278 58.5829L26.3803 45.4917C26.0468 45.1877 25.7822 44.8268 25.6017 44.4295C25.4212 44.0322 25.3283 43.6063 25.3283 43.1762C25.3283 42.7461 25.4212 42.3202 25.6017 41.9229C25.7822 41.5256 26.0468 41.1646 26.3803 40.8607L40.7278 27.7695C41.4009 27.1554 42.3137 26.8104 43.2655 26.8104C44.2174 26.8104 45.1302 27.1554 45.8033 27.7695C46.4763 28.3836 46.8544 29.2165 46.8544 30.085C46.8544 30.9535 46.4763 31.7864 45.8033 32.4005L37.5758 39.9034H64.7869C65.7382 39.9034 66.6505 40.2482 67.3232 40.862C67.9958 41.4757 68.3737 42.3082 68.3737 43.1762Z" fill="white"/>
</svg>
