<svg width="57" height="55" viewBox="0 0 57 55" fill="none" xmlns="http://www.w3.org/2000/svg">
<path d="M28.5 0C22.8632 0 17.3531 1.61285 12.6663 4.63458C7.97946 7.65632 4.32654 11.9512 2.16945 16.9762C0.0123486 22.0012 -0.552046 27.5305 0.547632 32.865C1.64731 38.1995 4.36167 43.0995 8.34747 46.9454C12.3333 50.7914 17.4115 53.4105 22.9399 54.4716C28.4684 55.5327 34.1988 54.9881 39.4065 52.9067C44.6142 50.8253 49.0653 47.3005 52.1969 42.7782C55.3285 38.2558 57 32.939 57 27.5C56.992 20.2089 53.9868 13.2186 48.6437 8.06306C43.3007 2.90748 36.0562 0.00769952 28.5 0ZM28.5 50.7692C23.7304 50.7692 19.068 49.4045 15.1022 46.8476C11.1365 44.2908 8.04554 40.6566 6.2203 36.4047C4.39506 32.1528 3.9175 27.4742 4.848 22.9604C5.77849 18.4466 8.07526 14.3004 11.4479 11.0462C14.8205 7.79191 19.1174 5.57573 23.7953 4.67788C28.4733 3.78003 33.322 4.24084 37.7286 6.00203C42.1351 7.76322 45.9014 10.7457 48.5512 14.5723C51.201 18.3989 52.6154 22.8978 52.6154 27.5C52.6081 33.6692 50.0651 39.5838 45.5441 43.9461C41.0232 48.3084 34.8936 50.7622 28.5 50.7692ZM41.6538 27.5C41.6538 28.061 41.4229 28.5991 41.0117 28.9958C40.6006 29.3925 40.043 29.6154 39.4615 29.6154H22.8301L27.8588 34.4649C28.0624 34.6614 28.224 34.8948 28.3342 35.1516C28.4445 35.4083 28.5012 35.6836 28.5012 35.9615C28.5012 36.2395 28.4445 36.5147 28.3342 36.7715C28.224 37.0283 28.0624 37.2616 27.8588 37.4582C27.6551 37.6547 27.4133 37.8106 27.1471 37.917C26.881 38.0233 26.5958 38.0781 26.3077 38.0781C26.0196 38.0781 25.7344 38.0233 25.4683 37.917C25.2021 37.8106 24.9603 37.6547 24.7566 37.4582L15.9874 28.9966C15.7836 28.8002 15.6219 28.5669 15.5116 28.3101C15.4012 28.0533 15.3444 27.778 15.3444 27.5C15.3444 27.222 15.4012 26.9467 15.5116 26.6899C15.6219 26.4331 15.7836 26.1998 15.9874 26.0034L24.7566 17.5418C25.168 17.1449 25.7259 16.9219 26.3077 16.9219C26.8895 16.9219 27.4474 17.1449 27.8588 17.5418C28.2701 17.9388 28.5012 18.4771 28.5012 19.0385C28.5012 19.5998 28.2701 20.1382 27.8588 20.5351L22.8301 25.3846H39.4615C40.043 25.3846 40.6006 25.6075 41.0117 26.0042C41.4229 26.4009 41.6538 26.939 41.6538 27.5Z" fill="white"/>
</svg>

