<svg width="94" height="86" viewBox="0 0 94 86" fill="none" xmlns="http://www.w3.org/2000/svg">
<path d="M47.2256 0.629883C38.0032 0.629883 28.9878 3.12518 21.3196 7.80023C13.6514 12.4753 7.67483 19.1201 4.14555 26.8944C0.616273 34.6687 -0.307147 43.2234 1.49206 51.4766C3.29127 59.7297 7.7323 67.3108 14.2536 73.261C20.7748 79.2112 29.0834 83.2633 38.1286 84.905C47.1739 86.5466 56.5495 85.7041 65.0699 82.4838C73.5904 79.2636 80.8729 73.8103 85.9966 66.8136C91.1203 59.8169 93.8551 51.591 93.8551 43.1762C93.8421 31.8959 88.9251 21.081 80.1832 13.1046C71.4413 5.12816 59.5885 0.641795 47.2256 0.629883ZM47.2256 79.1769C39.422 79.1769 31.7936 77.0655 25.3052 73.1097C18.8167 69.1539 13.7596 63.5313 10.7733 56.9531C7.78694 50.3748 7.00558 43.1362 8.52799 36.1528C10.0504 29.1693 13.8082 22.7546 19.3262 17.7198C24.8442 12.685 31.8745 9.25631 39.5282 7.86721C47.1818 6.47812 55.1151 7.19105 62.3247 9.91586C69.5343 12.6407 75.6964 17.255 80.0319 23.1753C84.3673 29.0955 86.6813 36.0559 86.6813 43.1762C86.6695 52.7208 82.5087 61.8715 75.1119 68.6206C67.7151 75.3697 57.6863 79.1661 47.2256 79.1769ZM67.6978 40.8607C68.0312 41.1646 68.2958 41.5256 68.4763 41.9229C68.6568 42.3202 68.7497 42.7461 68.7497 43.1762C68.7497 43.6063 68.6568 44.0322 68.4763 44.4295C68.2958 44.8268 68.0312 45.1877 67.6978 45.4917L53.3502 58.5829C52.6772 59.197 51.7643 59.542 50.8125 59.542C49.8607 59.542 48.9478 59.197 48.2748 58.5829C47.6017 57.9688 47.2236 57.1358 47.2236 56.2674C47.2236 55.3989 47.6017 54.566 48.2748 53.9519L56.5022 46.449H29.2912C28.3399 46.449 27.4275 46.1042 26.7549 45.4904C26.0822 44.8766 25.7043 44.0442 25.7043 43.1762C25.7043 42.3082 26.0822 41.4757 26.7549 40.862C27.4275 40.2482 28.3399 39.9034 29.2912 39.9034H56.5022L48.2748 32.4005C47.6017 31.7864 47.2236 30.9535 47.2236 30.085C47.2236 29.2165 47.6017 28.3836 48.2748 27.7695C48.9478 27.1554 49.8607 26.8104 50.8125 26.8104C51.7643 26.8104 52.6772 27.1554 53.3502 27.7695L67.6978 40.8607Z" fill="white"/>
</svg>
