<svg width="31" height="38" viewBox="0 0 31 38" fill="none" xmlns="http://www.w3.org/2000/svg">
<path d="M30.6602 18.713C30.6602 19.2588 30.5282 19.7822 30.2931 20.1681C30.058 20.554 29.7392 20.7708 29.4067 20.7708H1.83014C1.4977 20.7708 1.17887 20.554 0.943797 20.1681C0.708723 19.7822 0.57666 19.2588 0.57666 18.713C0.57666 18.1673 0.708723 17.6439 0.943797 17.258C1.17887 16.872 1.4977 16.6552 1.83014 16.6552H29.4067C29.7392 16.6552 30.058 16.872 30.2931 17.258C30.5282 17.6439 30.6602 18.1673 30.6602 18.713ZM1.83014 4.30846H29.4067C29.7392 4.30846 30.058 4.09166 30.2931 3.70575C30.5282 3.31984 30.6602 2.79643 30.6602 2.25067C30.6602 1.70491 30.5282 1.1815 30.2931 0.795586C30.058 0.409674 29.7392 0.192871 29.4067 0.192871H1.83014C1.4977 0.192871 1.17887 0.409674 0.943797 0.795586C0.708723 1.1815 0.57666 1.70491 0.57666 2.25067C0.57666 2.79643 0.708723 3.31984 0.943797 3.70575C1.17887 4.09166 1.4977 4.30846 1.83014 4.30846ZM29.4067 33.1176H1.83014C1.4977 33.1176 1.17887 33.3344 0.943797 33.7203C0.708723 34.1062 0.57666 34.6296 0.57666 35.1754C0.57666 35.7212 0.708723 36.2446 0.943797 36.6305C1.17887 37.0164 1.4977 37.2332 1.83014 37.2332H29.4067C29.7392 37.2332 30.058 37.0164 30.2931 36.6305C30.5282 36.2446 30.6602 35.7212 30.6602 35.1754C30.6602 34.6296 30.5282 34.1062 30.2931 33.7203C30.058 33.3344 29.7392 33.1176 29.4067 33.1176Z" fill="white"/>
</svg>
